<?xml version="1.0" encoding="utf-8"?>
<svg viewBox="83 49.9958 60.0712 60" width="32" height="32" xmlns="http://www.w3.org/2000/svg">
  <!-- WhatWatt Favicon - Icon part from updated logo -->
  <defs>
    <clipPath id="clippath1">
      <rect x="83" y="49.9958" width="60.0712" height="60"/>
    </clipPath>
  </defs>

  <!-- Main icon shape with bars from real logo -->
  <path d="M 130.787 94.233 C 130.787 96.221 129.225 97.783 127.237 97.783 C 125.249 97.783 123.686 96.221 123.686 94.233 L 123.686 65.76 C 123.686 63.771 125.249 62.209 127.237 62.209 C 129.225 62.209 130.787 63.771 130.787 65.76 L 130.787 94.233 Z M 116.586 94.233 C 116.586 96.221 114.953 97.783 113.036 97.783 C 111.047 97.783 109.485 96.221 109.485 94.233 L 109.485 80.032 C 109.485 78.044 111.047 76.482 113.036 76.482 C 114.953 76.482 116.586 78.044 116.586 80.032 L 116.586 94.233 Z M 102.385 94.233 C 102.385 96.221 100.751 97.783 98.834 97.783 C 96.846 97.783 95.284 96.221 95.284 94.233 L 95.284 65.76 C 95.284 63.771 96.846 62.209 98.834 62.209 C 100.751 62.209 102.385 63.771 102.385 65.76 L 102.385 94.233 Z M 132.42 49.996 L 93.651 49.996 C 87.757 49.996 83 54.754 83 60.576 L 83 99.416 C 83 105.239 87.757 109.996 93.651 109.996 L 132.42 109.996 C 138.314 109.996 143.071 105.239 143.071 99.416 L 143.071 60.576 C 143.071 54.754 138.314 49.996 132.42 49.996"
        style="fill: #11100D; fill-opacity: 1;"
        clip-path="url(#clippath1)"/>
</svg>
