<?xml version="1.0" encoding="utf-8"?>
<svg viewBox="83 49.9958 232.9389 60" width="232.9389" height="60" xmlns="http://www.w3.org/2000/svg">
  <path d="M 130.787 94.233 C 130.787 96.221 129.225 97.783 127.237 97.783 C 125.249 97.783 123.686 96.221 123.686 94.233 L 123.686 65.76 C 123.686 63.771 125.249 62.209 127.237 62.209 C 129.225 62.209 130.787 63.771 130.787 65.76 L 130.787 94.233 Z M 116.586 94.233 C 116.586 96.221 114.953 97.783 113.036 97.783 C 111.047 97.783 109.485 96.221 109.485 94.233 L 109.485 80.032 C 109.485 78.044 111.047 76.482 113.036 76.482 C 114.953 76.482 116.586 78.044 116.586 80.032 L 116.586 94.233 Z M 102.385 94.233 C 102.385 96.221 100.751 97.783 98.834 97.783 C 96.846 97.783 95.284 96.221 95.284 94.233 L 95.284 65.76 C 95.284 63.771 96.846 62.209 98.834 62.209 C 100.751 62.209 102.385 63.771 102.385 65.76 L 102.385 94.233 Z M 132.42 49.996 L 93.651 49.996 C 87.757 49.996 83 54.754 83 60.576 L 83 99.416 C 83 105.239 87.757 109.996 93.651 109.996 L 132.42 109.996 C 138.314 109.996 143.071 105.239 143.071 99.416 L 143.071 60.576 C 143.071 54.754 138.314 49.996 132.42 49.996" style="fill-opacity: 1; clip-path: url('#clippath1');"/>
  <path d="M 174.852 87.006 L 177.593 73.706 L 182.979 73.706 L 177.651 94.592 L 172.98 94.592 L 169.023 81.447 L 165.065 94.592 L 160.413 94.592 L 155.086 73.706 L 160.471 73.706 L 163.193 86.987 L 167.015 73.706 L 171.049 73.706 L 174.852 87.006 Z" style="fill-opacity: 1; clip-path: url('#clippath1');"/>
  <path d="M 191.182 75.984 C 192.662 74.208 194.521 73.32 196.761 73.32 C 201.29 73.32 203.587 75.952 203.652 81.215 L 203.652 94.592 L 198.073 94.592 L 198.073 81.339 C 198.073 80.14 197.816 79.253 197.301 78.679 C 196.786 78.105 195.931 77.818 194.734 77.818 C 193.099 77.818 191.916 78.45 191.182 79.714 L 191.182 94.592 L 185.603 94.592 L 185.603 64.943 L 191.182 64.943 L 191.182 75.984 Z" style="fill: rgb(0, 0, 0); fill-opacity: 1; clip-path: url('#clippath1');"/>
  <path d="M 215.35 90.713 C 216.173 90.713 216.933 90.53 217.628 90.163 C 218.323 89.796 218.837 89.304 219.172 88.686 L 219.172 85.096 L 217.087 85.096 C 214.295 85.096 212.808 86.061 212.628 87.991 L 212.609 88.319 C 212.609 89.014 212.853 89.587 213.342 90.037 C 213.831 90.488 214.5 90.713 215.35 90.713 M 219.963 94.593 C 219.706 94.091 219.52 93.467 219.403 92.72 C 218.052 94.226 216.296 94.979 214.134 94.979 C 212.088 94.979 210.392 94.387 209.047 93.203 C 207.702 92.019 207.03 90.526 207.03 88.724 C 207.03 86.511 207.851 84.813 209.491 83.629 C 211.132 82.445 213.503 81.847 216.605 81.833 L 219.172 81.833 L 219.172 80.637 C 219.172 79.671 218.924 78.899 218.429 78.32 C 217.933 77.741 217.151 77.452 216.084 77.452 C 215.144 77.452 214.407 77.677 213.873 78.127 C 213.339 78.578 213.072 79.195 213.072 79.98 L 207.494 79.98 C 207.494 78.771 207.867 77.651 208.613 76.621 C 209.359 75.592 210.415 74.785 211.779 74.199 C 213.143 73.613 214.674 73.321 216.373 73.321 C 218.947 73.321 220.989 73.967 222.502 75.261 C 224.014 76.554 224.77 78.372 224.77 80.714 L 224.77 89.767 C 224.782 91.749 225.059 93.248 225.6 94.265 L 225.6 94.593 L 219.963 94.593 Z" style="fill: rgb(0, 0, 0); fill-opacity: 1; clip-path: url('#clippath1');"/>
  <path d="M 235.734 68.572 L 235.734 73.707 L 239.305 73.707 L 239.305 77.799 L 235.734 77.799 L 235.734 88.223 C 235.734 88.995 235.882 89.548 236.178 89.883 C 236.474 90.218 237.04 90.384 237.877 90.384 C 238.494 90.384 239.041 90.34 239.518 90.249 L 239.518 94.477 C 238.424 94.811 237.298 94.979 236.139 94.979 C 232.227 94.979 230.233 93.004 230.155 89.053 L 230.155 77.799 L 227.106 77.799 L 227.106 73.707 L 230.155 73.707 L 230.155 68.572 L 235.734 68.572 Z" style="fill: rgb(0, 0, 0); fill-opacity: 1; clip-path: url('#clippath1');"/>
  <path d="M 261.465 89.67 L 265.48 73.706 L 269.051 73.706 L 262.971 94.592 L 260.075 94.592 L 254.998 78.764 L 250.057 94.592 L 247.161 94.592 L 241.1 73.706 L 244.652 73.706 L 248.764 89.342 L 253.628 73.706 L 256.504 73.706 L 261.465 89.67 Z" style="fill-opacity: 1; clip-path: url('#clippath1');"/>
  <path d="M 279.648 91.871 C 280.768 91.871 281.829 91.581 282.833 91.002 C 283.837 90.423 284.564 89.67 285.014 88.744 L 285.014 84.458 L 282.216 84.458 C 277.84 84.458 275.652 85.739 275.652 88.3 C 275.652 89.419 276.025 90.295 276.772 90.925 C 277.518 91.556 278.477 91.871 279.648 91.871 M 285.574 94.593 C 285.368 94.181 285.201 93.447 285.072 92.392 C 283.412 94.117 281.43 94.979 279.127 94.979 C 277.068 94.979 275.379 94.397 274.06 93.232 C 272.74 92.067 272.081 90.59 272.081 88.802 C 272.081 86.627 272.908 84.938 274.562 83.735 C 276.215 82.531 278.541 81.93 281.54 81.93 L 285.014 81.93 L 285.014 80.289 C 285.014 79.041 284.641 78.047 283.895 77.307 C 283.148 76.567 282.048 76.197 280.594 76.197 C 279.32 76.197 278.252 76.519 277.39 77.162 C 276.527 77.805 276.096 78.584 276.096 79.498 L 272.506 79.498 C 272.506 78.455 272.876 77.448 273.616 76.476 C 274.356 75.505 275.36 74.736 276.627 74.17 C 277.894 73.604 279.288 73.32 280.806 73.32 C 283.213 73.32 285.098 73.922 286.462 75.125 C 287.826 76.329 288.534 77.986 288.586 80.096 L 288.586 89.709 C 288.586 91.626 288.83 93.152 289.319 94.284 L 289.319 94.593 L 285.574 94.593 Z" style="fill-opacity: 1; clip-path: url('#clippath1');"/>
  <path d="M 299.029 68.649 L 299.029 73.706 L 302.928 73.706 L 302.928 76.466 L 299.029 76.466 L 299.029 89.435 C 299.029 90.273 299.203 90.901 299.55 91.32 C 299.897 91.739 300.489 91.948 301.326 91.948 C 301.738 91.948 302.304 91.871 303.025 91.716 L 303.025 94.595 C 302.085 94.851 301.172 94.978 300.284 94.978 C 298.688 94.978 297.485 94.496 296.674 93.531 C 295.863 92.566 295.458 91.195 295.458 89.419 L 295.458 76.466 L 291.655 76.466 L 291.655 73.706 L 295.458 73.706 L 295.458 68.649 L 299.029 68.649 Z" style="fill-opacity: 1; clip-path: url('#clippath1');"/>
  <path d="M 0 0 L 0 -5.057 L 3.899 -5.057 L 3.899 -7.817 L 0 -7.817 L 0 -20.786 C 0 -21.624 0.174 -22.252 0.521 -22.671 C 0.868 -23.09 1.46 -23.299 2.297 -23.299 C 2.709 -23.299 3.275 -23.222 3.996 -23.067 L 3.996 -25.946 C 3.056 -26.202 2.143 -26.329 1.255 -26.329 C -0.341 -26.329 -1.544 -25.847 -2.355 -24.882 C -3.166 -23.917 -3.571 -22.546 -3.571 -20.77 L -3.571 -7.817 L -7.374 -7.817 L -7.374 -5.057 L -3.571 -5.057 L -3.571 0 Z" style="fill-opacity: 1;" transform="matrix(1, 0, 0, -1, 311.9429016113282, 68.649169921875)"/>
</svg>
